<mxfile host="app.diagrams.net" modified="2024-05-23T14:42:18.166Z" agent="Mozilla/5.0 (Windows NT 10.0; Win64; x64) AppleWebKit/537.36 (KHTML, like Gecko) Chrome/122.0.0.0 Safari/537.36" etag="HxxZ4LFysNV76kBj7DCR" version="24.4.6" type="device">
  <diagram id="C5RBs43oDa-KdzZeNtuy" name="Page-1">
    <mxGraphModel dx="1024" dy="569" grid="1" gridSize="10" guides="1" tooltips="1" connect="1" arrows="1" fold="1" page="1" pageScale="1" pageWidth="827" pageHeight="1169" math="0" shadow="0">
      <root>
        <mxCell id="WIyWlLk6GJQsqaUBKTNV-0" />
        <mxCell id="WIyWlLk6GJQsqaUBKTNV-1" parent="WIyWlLk6GJQsqaUBKTNV-0" />
        <mxCell id="13UbmTAhKSCURLd1F4dl-21" style="edgeStyle=orthogonalEdgeStyle;rounded=0;orthogonalLoop=1;jettySize=auto;html=1;" edge="1" parent="WIyWlLk6GJQsqaUBKTNV-1" source="13UbmTAhKSCURLd1F4dl-0" target="13UbmTAhKSCURLd1F4dl-1">
          <mxGeometry relative="1" as="geometry" />
        </mxCell>
        <mxCell id="13UbmTAhKSCURLd1F4dl-0" value="&lt;font face=&quot;Times New Roman&quot;&gt;Mulai&lt;/font&gt;" style="ellipse;whiteSpace=wrap;html=1;" vertex="1" parent="WIyWlLk6GJQsqaUBKTNV-1">
          <mxGeometry x="406.48" y="30" width="60" height="30" as="geometry" />
        </mxCell>
        <mxCell id="13UbmTAhKSCURLd1F4dl-11" value="&lt;span id=&quot;docs-internal-guid-a24c938d-7fff-36d7-f1bd-a32cb82be49f&quot; style=&quot;font-weight:normal;&quot;&gt;&lt;span style=&quot;font-size: 12pt; font-family: &amp;quot;Times New Roman&amp;quot;, serif; background-color: transparent; font-variant-numeric: normal; font-variant-east-asian: normal; font-variant-alternates: normal; font-variant-position: normal; vertical-align: baseline; white-space-collapse: preserve;&quot;&gt;Pra-Pemrosesan Data&lt;/span&gt;&lt;/span&gt;" style="swimlane;horizontal=0;whiteSpace=wrap;html=1;" vertex="1" parent="WIyWlLk6GJQsqaUBKTNV-1">
          <mxGeometry x="250" y="70" width="350" height="310" as="geometry" />
        </mxCell>
        <mxCell id="13UbmTAhKSCURLd1F4dl-4" style="edgeStyle=orthogonalEdgeStyle;rounded=0;orthogonalLoop=1;jettySize=auto;html=1;" edge="1" parent="13UbmTAhKSCURLd1F4dl-11" source="13UbmTAhKSCURLd1F4dl-1" target="13UbmTAhKSCURLd1F4dl-3">
          <mxGeometry relative="1" as="geometry" />
        </mxCell>
        <mxCell id="13UbmTAhKSCURLd1F4dl-1" value="&lt;font face=&quot;Times New Roman&quot;&gt;Pengumpulan data RSUA&lt;/font&gt;" style="rounded=0;whiteSpace=wrap;html=1;" vertex="1" parent="13UbmTAhKSCURLd1F4dl-11">
          <mxGeometry x="91.48" y="20" width="190" height="30" as="geometry" />
        </mxCell>
        <mxCell id="13UbmTAhKSCURLd1F4dl-6" style="edgeStyle=orthogonalEdgeStyle;rounded=0;orthogonalLoop=1;jettySize=auto;html=1;entryX=0.5;entryY=0;entryDx=0;entryDy=0;" edge="1" parent="13UbmTAhKSCURLd1F4dl-11" source="13UbmTAhKSCURLd1F4dl-3" target="13UbmTAhKSCURLd1F4dl-5">
          <mxGeometry relative="1" as="geometry" />
        </mxCell>
        <mxCell id="13UbmTAhKSCURLd1F4dl-3" value="&lt;font face=&quot;Times New Roman&quot;&gt;Pelabelan data tulisan tangan dokumen RSUA&lt;/font&gt;" style="rounded=0;whiteSpace=wrap;html=1;" vertex="1" parent="13UbmTAhKSCURLd1F4dl-11">
          <mxGeometry x="91.48" y="70" width="189" height="40" as="geometry" />
        </mxCell>
        <mxCell id="13UbmTAhKSCURLd1F4dl-8" style="edgeStyle=orthogonalEdgeStyle;rounded=0;orthogonalLoop=1;jettySize=auto;html=1;entryX=0.5;entryY=0;entryDx=0;entryDy=0;" edge="1" parent="13UbmTAhKSCURLd1F4dl-11" source="13UbmTAhKSCURLd1F4dl-5" target="13UbmTAhKSCURLd1F4dl-7">
          <mxGeometry relative="1" as="geometry" />
        </mxCell>
        <mxCell id="13UbmTAhKSCURLd1F4dl-5" value="&lt;font face=&quot;Times New Roman&quot;&gt;Augmentasi data tulisan tangan&lt;/font&gt;" style="rounded=0;whiteSpace=wrap;html=1;" vertex="1" parent="13UbmTAhKSCURLd1F4dl-11">
          <mxGeometry x="91.48" y="130" width="189" height="40" as="geometry" />
        </mxCell>
        <mxCell id="13UbmTAhKSCURLd1F4dl-10" style="edgeStyle=orthogonalEdgeStyle;rounded=0;orthogonalLoop=1;jettySize=auto;html=1;" edge="1" parent="13UbmTAhKSCURLd1F4dl-11" source="13UbmTAhKSCURLd1F4dl-7" target="13UbmTAhKSCURLd1F4dl-9">
          <mxGeometry relative="1" as="geometry" />
        </mxCell>
        <mxCell id="13UbmTAhKSCURLd1F4dl-7" value="&lt;font face=&quot;Times New Roman&quot;&gt;Pencarian &lt;i&gt;Region of Interest&lt;/i&gt;&amp;nbsp;&lt;/font&gt;" style="rounded=0;whiteSpace=wrap;html=1;" vertex="1" parent="13UbmTAhKSCURLd1F4dl-11">
          <mxGeometry x="91.48" y="190" width="189" height="40" as="geometry" />
        </mxCell>
        <mxCell id="13UbmTAhKSCURLd1F4dl-9" value="&lt;font face=&quot;Times New Roman&quot;&gt;Pembersihan data&lt;/font&gt;" style="rounded=0;whiteSpace=wrap;html=1;" vertex="1" parent="13UbmTAhKSCURLd1F4dl-11">
          <mxGeometry x="91.48" y="250" width="189" height="40" as="geometry" />
        </mxCell>
        <mxCell id="13UbmTAhKSCURLd1F4dl-12" value="&lt;span id=&quot;docs-internal-guid-a24c938d-7fff-36d7-f1bd-a32cb82be49f&quot; style=&quot;font-weight:normal;&quot;&gt;&lt;span style=&quot;font-size: 12pt; font-family: &amp;quot;Times New Roman&amp;quot;, serif; background-color: transparent; font-variant-numeric: normal; font-variant-east-asian: normal; font-variant-alternates: normal; font-variant-position: normal; vertical-align: baseline; white-space-collapse: preserve;&quot;&gt;Pengembangan OCR&lt;/span&gt;&lt;/span&gt;" style="swimlane;horizontal=0;whiteSpace=wrap;html=1;" vertex="1" parent="WIyWlLk6GJQsqaUBKTNV-1">
          <mxGeometry x="250" y="380" width="350" height="440" as="geometry" />
        </mxCell>
        <mxCell id="13UbmTAhKSCURLd1F4dl-25" style="edgeStyle=orthogonalEdgeStyle;rounded=0;orthogonalLoop=1;jettySize=auto;html=1;entryX=0.5;entryY=0;entryDx=0;entryDy=0;" edge="1" parent="13UbmTAhKSCURLd1F4dl-12" source="13UbmTAhKSCURLd1F4dl-13" target="13UbmTAhKSCURLd1F4dl-23">
          <mxGeometry relative="1" as="geometry">
            <Array as="points">
              <mxPoint x="186.48" y="170" />
              <mxPoint x="141.48" y="170" />
            </Array>
          </mxGeometry>
        </mxCell>
        <mxCell id="13UbmTAhKSCURLd1F4dl-13" value="&lt;i&gt;&lt;font style=&quot;font-size: 10px;&quot;&gt;Dataset Training (80%)&lt;/font&gt;&lt;/i&gt;" style="rounded=0;whiteSpace=wrap;html=1;" vertex="1" parent="13UbmTAhKSCURLd1F4dl-12">
          <mxGeometry x="141.48" y="120" width="90" height="30" as="geometry" />
        </mxCell>
        <mxCell id="13UbmTAhKSCURLd1F4dl-27" style="edgeStyle=orthogonalEdgeStyle;rounded=0;orthogonalLoop=1;jettySize=auto;html=1;" edge="1" parent="13UbmTAhKSCURLd1F4dl-12" source="13UbmTAhKSCURLd1F4dl-14" target="13UbmTAhKSCURLd1F4dl-26">
          <mxGeometry relative="1" as="geometry">
            <Array as="points">
              <mxPoint x="289.48" y="230" />
              <mxPoint x="191.48" y="230" />
            </Array>
          </mxGeometry>
        </mxCell>
        <mxCell id="13UbmTAhKSCURLd1F4dl-14" value="&lt;i&gt;&lt;font style=&quot;font-size: 10px;&quot;&gt;Dataset Test (20%)&lt;/font&gt;&lt;/i&gt;" style="rounded=0;whiteSpace=wrap;html=1;" vertex="1" parent="13UbmTAhKSCURLd1F4dl-12">
          <mxGeometry x="241.48" y="120" width="96" height="30" as="geometry" />
        </mxCell>
        <mxCell id="13UbmTAhKSCURLd1F4dl-17" style="edgeStyle=orthogonalEdgeStyle;rounded=0;orthogonalLoop=1;jettySize=auto;html=1;entryX=0.5;entryY=0;entryDx=0;entryDy=0;" edge="1" parent="13UbmTAhKSCURLd1F4dl-12" source="13UbmTAhKSCURLd1F4dl-15" target="13UbmTAhKSCURLd1F4dl-13">
          <mxGeometry relative="1" as="geometry" />
        </mxCell>
        <mxCell id="13UbmTAhKSCURLd1F4dl-18" style="edgeStyle=orthogonalEdgeStyle;rounded=0;orthogonalLoop=1;jettySize=auto;html=1;" edge="1" parent="13UbmTAhKSCURLd1F4dl-12" source="13UbmTAhKSCURLd1F4dl-15" target="13UbmTAhKSCURLd1F4dl-14">
          <mxGeometry relative="1" as="geometry">
            <Array as="points">
              <mxPoint x="186.48" y="100" />
              <mxPoint x="279.48" y="100" />
            </Array>
          </mxGeometry>
        </mxCell>
        <mxCell id="13UbmTAhKSCURLd1F4dl-15" value="&lt;font face=&quot;Times New Roman&quot;&gt;Dataset Tulisan Tangan RSUA&lt;/font&gt;" style="shape=cylinder3;whiteSpace=wrap;html=1;boundedLbl=1;backgroundOutline=1;size=15;" vertex="1" parent="13UbmTAhKSCURLd1F4dl-12">
          <mxGeometry x="145.48" y="20" width="81" height="70" as="geometry" />
        </mxCell>
        <mxCell id="13UbmTAhKSCURLd1F4dl-24" style="edgeStyle=orthogonalEdgeStyle;rounded=0;orthogonalLoop=1;jettySize=auto;html=1;entryX=0.5;entryY=0;entryDx=0;entryDy=0;" edge="1" parent="13UbmTAhKSCURLd1F4dl-12" source="13UbmTAhKSCURLd1F4dl-19" target="13UbmTAhKSCURLd1F4dl-23">
          <mxGeometry relative="1" as="geometry">
            <Array as="points">
              <mxPoint x="91.48" y="170" />
              <mxPoint x="141.48" y="170" />
            </Array>
          </mxGeometry>
        </mxCell>
        <mxCell id="13UbmTAhKSCURLd1F4dl-19" value="&lt;font style=&quot;font-size: 10px;&quot; face=&quot;Times New Roman&quot;&gt;Pretrained IAM Dataset Model&lt;/font&gt;" style="rounded=0;whiteSpace=wrap;html=1;" vertex="1" parent="13UbmTAhKSCURLd1F4dl-12">
          <mxGeometry x="51.48" y="120" width="80" height="30" as="geometry" />
        </mxCell>
        <mxCell id="13UbmTAhKSCURLd1F4dl-28" style="edgeStyle=orthogonalEdgeStyle;rounded=0;orthogonalLoop=1;jettySize=auto;html=1;" edge="1" parent="13UbmTAhKSCURLd1F4dl-12" source="13UbmTAhKSCURLd1F4dl-23" target="13UbmTAhKSCURLd1F4dl-26">
          <mxGeometry relative="1" as="geometry">
            <Array as="points">
              <mxPoint x="141.48" y="230" />
              <mxPoint x="191.48" y="230" />
            </Array>
          </mxGeometry>
        </mxCell>
        <mxCell id="13UbmTAhKSCURLd1F4dl-23" value="&lt;font face=&quot;Times New Roman&quot;&gt;Fine-tuned IAM + RSUA Model&amp;nbsp;&amp;nbsp;&lt;/font&gt;" style="rounded=0;whiteSpace=wrap;html=1;" vertex="1" parent="13UbmTAhKSCURLd1F4dl-12">
          <mxGeometry x="51.48" y="190" width="180" height="30" as="geometry" />
        </mxCell>
        <mxCell id="13UbmTAhKSCURLd1F4dl-32" style="edgeStyle=orthogonalEdgeStyle;rounded=0;orthogonalLoop=1;jettySize=auto;html=1;" edge="1" parent="13UbmTAhKSCURLd1F4dl-12" source="13UbmTAhKSCURLd1F4dl-26" target="13UbmTAhKSCURLd1F4dl-31">
          <mxGeometry relative="1" as="geometry" />
        </mxCell>
        <mxCell id="13UbmTAhKSCURLd1F4dl-26" value="&lt;font face=&quot;Times New Roman&quot;&gt;Evaluasi Model&lt;/font&gt;" style="rounded=0;whiteSpace=wrap;html=1;" vertex="1" parent="13UbmTAhKSCURLd1F4dl-12">
          <mxGeometry x="51.48" y="250" width="280" height="30" as="geometry" />
        </mxCell>
        <mxCell id="13UbmTAhKSCURLd1F4dl-33" style="edgeStyle=orthogonalEdgeStyle;rounded=0;orthogonalLoop=1;jettySize=auto;html=1;entryX=0;entryY=0.5;entryDx=0;entryDy=0;" edge="1" parent="13UbmTAhKSCURLd1F4dl-12" source="13UbmTAhKSCURLd1F4dl-31" target="13UbmTAhKSCURLd1F4dl-23">
          <mxGeometry relative="1" as="geometry">
            <Array as="points">
              <mxPoint x="31.48" y="330" />
              <mxPoint x="31.48" y="205" />
            </Array>
          </mxGeometry>
        </mxCell>
        <mxCell id="13UbmTAhKSCURLd1F4dl-57" value="Tidak" style="edgeLabel;html=1;align=center;verticalAlign=middle;resizable=0;points=[];" vertex="1" connectable="0" parent="13UbmTAhKSCURLd1F4dl-33">
          <mxGeometry x="-0.6868" y="-2" relative="1" as="geometry">
            <mxPoint as="offset" />
          </mxGeometry>
        </mxCell>
        <mxCell id="13UbmTAhKSCURLd1F4dl-31" value="&lt;font face=&quot;Times New Roman&quot;&gt;Hasil Bagus?&lt;/font&gt;" style="rhombus;whiteSpace=wrap;html=1;" vertex="1" parent="13UbmTAhKSCURLd1F4dl-12">
          <mxGeometry x="161.48" y="300" width="60" height="60" as="geometry" />
        </mxCell>
        <mxCell id="13UbmTAhKSCURLd1F4dl-22" style="edgeStyle=orthogonalEdgeStyle;rounded=0;orthogonalLoop=1;jettySize=auto;html=1;entryX=0.5;entryY=0;entryDx=0;entryDy=0;entryPerimeter=0;" edge="1" parent="WIyWlLk6GJQsqaUBKTNV-1" source="13UbmTAhKSCURLd1F4dl-9" target="13UbmTAhKSCURLd1F4dl-15">
          <mxGeometry relative="1" as="geometry" />
        </mxCell>
        <mxCell id="13UbmTAhKSCURLd1F4dl-104" value="&lt;font face=&quot;Times New Roman, serif&quot;&gt;&lt;span style=&quot;font-size: 16px; font-weight: 400; white-space-collapse: preserve;&quot;&gt;Aplikasi web&lt;/span&gt;&lt;/font&gt;" style="swimlane;horizontal=0;whiteSpace=wrap;html=1;" vertex="1" parent="WIyWlLk6GJQsqaUBKTNV-1">
          <mxGeometry x="250" y="820" width="350" height="240" as="geometry" />
        </mxCell>
        <mxCell id="13UbmTAhKSCURLd1F4dl-149" value="" style="rounded=0;whiteSpace=wrap;html=1;dashed=1;fillColor=none;" vertex="1" parent="13UbmTAhKSCURLd1F4dl-104">
          <mxGeometry x="44" y="40" width="296" height="180" as="geometry" />
        </mxCell>
        <mxCell id="13UbmTAhKSCURLd1F4dl-139" style="edgeStyle=orthogonalEdgeStyle;rounded=0;orthogonalLoop=1;jettySize=auto;html=1;" edge="1" parent="13UbmTAhKSCURLd1F4dl-104" source="13UbmTAhKSCURLd1F4dl-140" target="13UbmTAhKSCURLd1F4dl-144">
          <mxGeometry relative="1" as="geometry" />
        </mxCell>
        <mxCell id="13UbmTAhKSCURLd1F4dl-140" value="&lt;font face=&quot;Times New Roman&quot;&gt;Model OCR final&lt;/font&gt;" style="rounded=0;whiteSpace=wrap;html=1;" vertex="1" parent="13UbmTAhKSCURLd1F4dl-104">
          <mxGeometry x="200" y="60" width="126" height="20" as="geometry" />
        </mxCell>
        <mxCell id="13UbmTAhKSCURLd1F4dl-141" style="edgeStyle=orthogonalEdgeStyle;rounded=0;orthogonalLoop=1;jettySize=auto;html=1;" edge="1" parent="13UbmTAhKSCURLd1F4dl-104" source="13UbmTAhKSCURLd1F4dl-142" target="13UbmTAhKSCURLd1F4dl-144">
          <mxGeometry relative="1" as="geometry" />
        </mxCell>
        <mxCell id="13UbmTAhKSCURLd1F4dl-142" value="&lt;font face=&quot;Times New Roman&quot;&gt;Sistem &lt;i&gt;spell checker&lt;/i&gt;&lt;/font&gt;" style="rounded=0;whiteSpace=wrap;html=1;" vertex="1" parent="13UbmTAhKSCURLd1F4dl-104">
          <mxGeometry x="60" y="60" width="110" height="20" as="geometry" />
        </mxCell>
        <mxCell id="13UbmTAhKSCURLd1F4dl-147" style="edgeStyle=orthogonalEdgeStyle;rounded=0;orthogonalLoop=1;jettySize=auto;html=1;entryX=0.5;entryY=0;entryDx=0;entryDy=0;" edge="1" parent="13UbmTAhKSCURLd1F4dl-104" source="13UbmTAhKSCURLd1F4dl-144" target="13UbmTAhKSCURLd1F4dl-145">
          <mxGeometry relative="1" as="geometry" />
        </mxCell>
        <mxCell id="13UbmTAhKSCURLd1F4dl-144" value="&lt;font face=&quot;Times New Roman&quot;&gt;WSGI (&lt;i&gt;Flask&lt;/i&gt;)&lt;/font&gt;" style="rounded=0;whiteSpace=wrap;html=1;" vertex="1" parent="13UbmTAhKSCURLd1F4dl-104">
          <mxGeometry x="116.48000000000002" y="120" width="126" height="30" as="geometry" />
        </mxCell>
        <mxCell id="13UbmTAhKSCURLd1F4dl-145" value="&lt;font face=&quot;Times New Roman&quot;&gt;&lt;i&gt;Web Server&lt;/i&gt; (&lt;i&gt;NGINX)&lt;/i&gt;&lt;/font&gt;" style="rounded=0;whiteSpace=wrap;html=1;" vertex="1" parent="13UbmTAhKSCURLd1F4dl-104">
          <mxGeometry x="117.72000000000003" y="170" width="123.52" height="20" as="geometry" />
        </mxCell>
        <mxCell id="13UbmTAhKSCURLd1F4dl-150" value="Docker Container" style="text;html=1;align=center;verticalAlign=middle;whiteSpace=wrap;rounded=0;" vertex="1" parent="13UbmTAhKSCURLd1F4dl-104">
          <mxGeometry x="40" y="10" width="110" height="30" as="geometry" />
        </mxCell>
        <mxCell id="13UbmTAhKSCURLd1F4dl-154" style="edgeStyle=orthogonalEdgeStyle;rounded=0;orthogonalLoop=1;jettySize=auto;html=1;entryX=0.5;entryY=0;entryDx=0;entryDy=0;" edge="1" parent="WIyWlLk6GJQsqaUBKTNV-1" source="13UbmTAhKSCURLd1F4dl-31" target="13UbmTAhKSCURLd1F4dl-140">
          <mxGeometry relative="1" as="geometry">
            <Array as="points">
              <mxPoint x="442" y="790" />
              <mxPoint x="513" y="790" />
            </Array>
          </mxGeometry>
        </mxCell>
        <mxCell id="13UbmTAhKSCURLd1F4dl-152" value="Selesai" style="ellipse;whiteSpace=wrap;html=1;" vertex="1" parent="WIyWlLk6GJQsqaUBKTNV-1">
          <mxGeometry x="390.72" y="1080" width="77.52" height="40" as="geometry" />
        </mxCell>
        <mxCell id="13UbmTAhKSCURLd1F4dl-153" style="edgeStyle=orthogonalEdgeStyle;rounded=0;orthogonalLoop=1;jettySize=auto;html=1;" edge="1" parent="WIyWlLk6GJQsqaUBKTNV-1" source="13UbmTAhKSCURLd1F4dl-145" target="13UbmTAhKSCURLd1F4dl-152">
          <mxGeometry relative="1" as="geometry" />
        </mxCell>
      </root>
    </mxGraphModel>
  </diagram>
</mxfile>
